<?xml version="1.0" encoding="UTF-8" standalone="no"?>
<!DOCTYPE svg PUBLIC "-//W3C//DTD SVG 1.1//EN"
 "http://www.w3.org/Graphics/SVG/1.1/DTD/svg11.dtd">
<!-- Generated by graphviz version 2.38.0 (20140413.2041)
 -->
<!-- Title: controllers_diagram Pages: 1 -->
<svg width="641pt" height="627pt"
 viewBox="0.00 0.00 641.40 627.00" xmlns="http://www.w3.org/2000/svg" xmlns:xlink="http://www.w3.org/1999/xlink">
<g id="graph0" class="graph" transform="scale(1 1) rotate(0) translate(243.688 383.5)">
<title>controllers_diagram</title>
<polygon fill="white" stroke="none" points="-243.688,243.5 -243.688,-383.5 397.714,-383.5 397.714,243.5 -243.688,243.5"/>
<!-- _diagram_info -->
<g id="node1" class="node"><title>_diagram_info</title>
<text text-anchor="start" x="-231.688" y="180.9" font-family="Times,serif" font-size="13.00">Controllers diagram</text>
<text text-anchor="start" x="-231.688" y="193.9" font-family="Times,serif" font-size="13.00">Date: Mar 02 2015 &#45; 13:08</text>
<text text-anchor="start" x="-231.688" y="206.9" font-family="Times,serif" font-size="13.00">Migration version: 20150218144058</text>
<text text-anchor="start" x="-231.688" y="219.9" font-family="Times,serif" font-size="13.00">Generated by RailRoady 1.3.0</text>
<text text-anchor="start" x="-231.688" y="232.9" font-family="Times,serif" font-size="13.00">http://railroady.prestonlee.com</text>
</g>
<!-- ApplicationController -->
<g id="node2" class="node"><title>ApplicationController</title>
<path fill="none" stroke="black" d="M108.034,223C108.034,223 281.966,223 281.966,223 287.966,223 293.966,217 293.966,211 293.966,211 293.966,145 293.966,145 293.966,139 287.966,133 281.966,133 281.966,133 108.034,133 108.034,133 102.034,133 96.0342,139 96.0342,145 96.0342,145 96.0342,211 96.0342,211 96.0342,217 102.034,223 108.034,223"/>
<text text-anchor="middle" x="195" y="148.2" font-family="Times,serif" font-size="14.00">ApplicationController</text>
<polyline fill="none" stroke="black" points="96.0342,155 293.966,155 "/>
<polyline fill="none" stroke="black" points="96.0342,179 293.966,179 "/>
<text text-anchor="start" x="104.034" y="194.2" font-family="Times,serif" font-size="14.00">configure_permitted_parameters</text>
<polyline fill="none" stroke="black" points="96.0342,201 293.966,201 "/>
<text text-anchor="start" x="104.034" y="216.2" font-family="Times,serif" font-size="14.00">_layout</text>
</g>
<!-- CartsController -->
<g id="node3" class="node"><title>CartsController</title>
<path fill="none" stroke="black" d="M284.452,95C284.452,95 363.548,95 363.548,95 369.548,95 375.548,89 375.548,83 375.548,83 375.548,-25 375.548,-25 375.548,-31 369.548,-37 363.548,-37 363.548,-37 284.452,-37 284.452,-37 278.452,-37 272.452,-31 272.452,-25 272.452,-25 272.452,83 272.452,83 272.452,89 278.452,95 284.452,95"/>
<text text-anchor="middle" x="324" y="-21.8" font-family="Times,serif" font-size="14.00">CartsController</text>
<polyline fill="none" stroke="black" points="272.452,-15 375.548,-15 "/>
<text text-anchor="start" x="280.452" y="0.2" font-family="Times,serif" font-size="14.00">destroy</text>
<text text-anchor="start" x="280.452" y="14.2" font-family="Times,serif" font-size="14.00">index</text>
<text text-anchor="start" x="280.452" y="28.2" font-family="Times,serif" font-size="14.00">show</text>
<polyline fill="none" stroke="black" points="272.452,35 375.548,35 "/>
<polyline fill="none" stroke="black" points="272.452,59 375.548,59 "/>
<text text-anchor="start" x="280.452" y="74.2" font-family="Times,serif" font-size="14.00">_layout</text>
<text text-anchor="start" x="280.452" y="88.2" font-family="Times,serif" font-size="14.00">find_cart</text>
</g>
<!-- CategoriesController -->
<g id="node4" class="node"><title>CategoriesController</title>
<path fill="none" stroke="black" d="M-19.707,-145C-19.707,-145 89.707,-145 89.707,-145 95.707,-145 101.707,-151 101.707,-157 101.707,-157 101.707,-307 101.707,-307 101.707,-313 95.707,-319 89.707,-319 89.707,-319 -19.707,-319 -19.707,-319 -25.707,-319 -31.707,-313 -31.707,-307 -31.707,-307 -31.707,-157 -31.707,-157 -31.707,-151 -25.707,-145 -19.707,-145"/>
<text text-anchor="middle" x="35" y="-303.8" font-family="Times,serif" font-size="14.00">CategoriesController</text>
<polyline fill="none" stroke="black" points="-31.707,-297 101.707,-297 "/>
<text text-anchor="start" x="-23.707" y="-281.8" font-family="Times,serif" font-size="14.00">create</text>
<text text-anchor="start" x="-23.707" y="-267.8" font-family="Times,serif" font-size="14.00">edit</text>
<text text-anchor="start" x="-23.707" y="-253.8" font-family="Times,serif" font-size="14.00">index</text>
<text text-anchor="start" x="-23.707" y="-239.8" font-family="Times,serif" font-size="14.00">new</text>
<text text-anchor="start" x="-23.707" y="-225.8" font-family="Times,serif" font-size="14.00">show</text>
<text text-anchor="start" x="-23.707" y="-211.8" font-family="Times,serif" font-size="14.00">update</text>
<polyline fill="none" stroke="black" points="-31.707,-205 101.707,-205 "/>
<polyline fill="none" stroke="black" points="-31.707,-181 101.707,-181 "/>
<text text-anchor="start" x="-23.707" y="-165.8" font-family="Times,serif" font-size="14.00">_layout</text>
<text text-anchor="start" x="-23.707" y="-151.8" font-family="Times,serif" font-size="14.00">category_params</text>
</g>
<!-- ManufacturesController -->
<g id="node5" class="node"><title>ManufacturesController</title>
<path fill="none" stroke="black" d="M107.745,95C107.745,95 234.255,95 234.255,95 240.255,95 246.255,89 246.255,83 246.255,83 246.255,-81 246.255,-81 246.255,-87 240.255,-93 234.255,-93 234.255,-93 107.745,-93 107.745,-93 101.745,-93 95.7446,-87 95.7446,-81 95.7446,-81 95.7446,83 95.7446,83 95.7446,89 101.745,95 107.745,95"/>
<text text-anchor="middle" x="171" y="-77.8" font-family="Times,serif" font-size="14.00">ManufacturesController</text>
<polyline fill="none" stroke="black" points="95.7446,-71 246.255,-71 "/>
<text text-anchor="start" x="103.745" y="-55.8" font-family="Times,serif" font-size="14.00">create</text>
<text text-anchor="start" x="103.745" y="-41.8" font-family="Times,serif" font-size="14.00">edit</text>
<text text-anchor="start" x="103.745" y="-27.8" font-family="Times,serif" font-size="14.00">index</text>
<text text-anchor="start" x="103.745" y="-13.8" font-family="Times,serif" font-size="14.00">new</text>
<text text-anchor="start" x="103.745" y="0.2" font-family="Times,serif" font-size="14.00">show</text>
<text text-anchor="start" x="103.745" y="14.2" font-family="Times,serif" font-size="14.00">update</text>
<polyline fill="none" stroke="black" points="95.7446,21 246.255,21 "/>
<polyline fill="none" stroke="black" points="95.7446,45 246.255,45 "/>
<text text-anchor="start" x="103.745" y="60.2" font-family="Times,serif" font-size="14.00">_layout</text>
<text text-anchor="start" x="103.745" y="74.2" font-family="Times,serif" font-size="14.00">find_manufactures</text>
<text text-anchor="start" x="103.745" y="88.2" font-family="Times,serif" font-size="14.00">manufacture_params</text>
</g>
<!-- MembershipController -->
<g id="node6" class="node"><title>MembershipController</title>
<path fill="none" stroke="black" d="M-195.638,-209C-195.638,-209 -68.3618,-209 -68.3618,-209 -62.3618,-209 -56.3618,-215 -56.3618,-221 -56.3618,-221 -56.3618,-317 -56.3618,-317 -56.3618,-323 -62.3618,-329 -68.3618,-329 -68.3618,-329 -195.638,-329 -195.638,-329 -201.638,-329 -207.638,-323 -207.638,-317 -207.638,-317 -207.638,-221 -207.638,-221 -207.638,-215 -201.638,-209 -195.638,-209"/>
<text text-anchor="middle" x="-132" y="-313.8" font-family="Times,serif" font-size="14.00">MembershipController</text>
<polyline fill="none" stroke="black" points="-207.638,-307 -56.3618,-307 "/>
<polyline fill="none" stroke="black" points="-207.638,-283 -56.3618,-283 "/>
<polyline fill="none" stroke="black" points="-207.638,-259 -56.3618,-259 "/>
<text text-anchor="start" x="-199.638" y="-243.8" font-family="Times,serif" font-size="14.00">_layout</text>
<text text-anchor="start" x="-199.638" y="-229.8" font-family="Times,serif" font-size="14.00">account_update_params</text>
<text text-anchor="start" x="-199.638" y="-215.8" font-family="Times,serif" font-size="14.00">sign_up_params</text>
</g>
<!-- OrdersController -->
<g id="node7" class="node"><title>OrdersController</title>
<path fill="none" stroke="black" d="M-195.821,-1C-195.821,-1 -108.179,-1 -108.179,-1 -102.179,-1 -96.1792,-7 -96.1792,-13 -96.1792,-13 -96.1792,-149 -96.1792,-149 -96.1792,-155 -102.179,-161 -108.179,-161 -108.179,-161 -195.821,-161 -195.821,-161 -201.821,-161 -207.821,-155 -207.821,-149 -207.821,-149 -207.821,-13 -207.821,-13 -207.821,-7 -201.821,-1 -195.821,-1"/>
<text text-anchor="middle" x="-152" y="-145.8" font-family="Times,serif" font-size="14.00">OrdersController</text>
<polyline fill="none" stroke="black" points="-207.821,-139 -96.1792,-139 "/>
<text text-anchor="start" x="-199.821" y="-123.8" font-family="Times,serif" font-size="14.00">create</text>
<text text-anchor="start" x="-199.821" y="-109.8" font-family="Times,serif" font-size="14.00">index</text>
<text text-anchor="start" x="-199.821" y="-95.8" font-family="Times,serif" font-size="14.00">new</text>
<text text-anchor="start" x="-199.821" y="-81.8" font-family="Times,serif" font-size="14.00">show</text>
<polyline fill="none" stroke="black" points="-207.821,-75 -96.1792,-75 "/>
<polyline fill="none" stroke="black" points="-207.821,-51 -96.1792,-51 "/>
<text text-anchor="start" x="-199.821" y="-35.8" font-family="Times,serif" font-size="14.00">_layout</text>
<text text-anchor="start" x="-199.821" y="-21.8" font-family="Times,serif" font-size="14.00">order_params</text>
<text text-anchor="start" x="-199.821" y="-7.8" font-family="Times,serif" font-size="14.00">prepare_order</text>
</g>
<!-- PicturesController -->
<g id="node8" class="node"><title>PicturesController</title>
<path fill="none" stroke="black" d="M-196.324,127C-196.324,127 -101.676,127 -101.676,127 -95.6758,127 -89.6758,121 -89.6758,115 -89.6758,115 -89.6758,49 -89.6758,49 -89.6758,43 -95.6758,37 -101.676,37 -101.676,37 -196.324,37 -196.324,37 -202.324,37 -208.324,43 -208.324,49 -208.324,49 -208.324,115 -208.324,115 -208.324,121 -202.324,127 -196.324,127"/>
<text text-anchor="middle" x="-149" y="52.2" font-family="Times,serif" font-size="14.00">PicturesController</text>
<polyline fill="none" stroke="black" points="-208.324,59 -89.6758,59 "/>
<text text-anchor="start" x="-200.324" y="74.2" font-family="Times,serif" font-size="14.00">destroy</text>
<polyline fill="none" stroke="black" points="-208.324,81 -89.6758,81 "/>
<polyline fill="none" stroke="black" points="-208.324,105 -89.6758,105 "/>
<text text-anchor="start" x="-200.324" y="120.2" font-family="Times,serif" font-size="14.00">_layout</text>
</g>
<!-- ProductRecordsController -->
<g id="node9" class="node"><title>ProductRecordsController</title>
<path fill="none" stroke="black" d="M139.514,-129C139.514,-129 278.486,-129 278.486,-129 284.486,-129 290.486,-135 290.486,-141 290.486,-141 290.486,-249 290.486,-249 290.486,-255 284.486,-261 278.486,-261 278.486,-261 139.514,-261 139.514,-261 133.514,-261 127.514,-255 127.514,-249 127.514,-249 127.514,-141 127.514,-141 127.514,-135 133.514,-129 139.514,-129"/>
<text text-anchor="middle" x="209" y="-245.8" font-family="Times,serif" font-size="14.00">ProductRecordsController</text>
<polyline fill="none" stroke="black" points="127.514,-239 290.486,-239 "/>
<text text-anchor="start" x="135.514" y="-223.8" font-family="Times,serif" font-size="14.00">create</text>
<text text-anchor="start" x="135.514" y="-209.8" font-family="Times,serif" font-size="14.00">destroy</text>
<text text-anchor="start" x="135.514" y="-195.8" font-family="Times,serif" font-size="14.00">show</text>
<polyline fill="none" stroke="black" points="127.514,-189 290.486,-189 "/>
<polyline fill="none" stroke="black" points="127.514,-165 290.486,-165 "/>
<text text-anchor="start" x="135.514" y="-149.8" font-family="Times,serif" font-size="14.00">_layout</text>
<text text-anchor="start" x="135.514" y="-135.8" font-family="Times,serif" font-size="14.00">set_product_record</text>
</g>
<!-- ProductsController -->
<g id="node10" class="node"><title>ProductsController</title>
<path fill="none" stroke="black" d="M-52.2725,127C-52.2725,127 46.2725,127 46.2725,127 52.2725,127 58.2725,121 58.2725,115 58.2725,115 58.2725,-105 58.2725,-105 58.2725,-111 52.2725,-117 46.2725,-117 46.2725,-117 -52.2725,-117 -52.2725,-117 -58.2725,-117 -64.2725,-111 -64.2725,-105 -64.2725,-105 -64.2725,115 -64.2725,115 -64.2725,121 -58.2725,127 -52.2725,127"/>
<text text-anchor="middle" x="-3" y="-101.8" font-family="Times,serif" font-size="14.00">ProductsController</text>
<polyline fill="none" stroke="black" points="-64.2725,-95 58.2725,-95 "/>
<text text-anchor="start" x="-56.2725" y="-79.8" font-family="Times,serif" font-size="14.00">create</text>
<text text-anchor="start" x="-56.2725" y="-65.8" font-family="Times,serif" font-size="14.00">custom_action</text>
<text text-anchor="start" x="-56.2725" y="-51.8" font-family="Times,serif" font-size="14.00">destroy</text>
<text text-anchor="start" x="-56.2725" y="-37.8" font-family="Times,serif" font-size="14.00">edit</text>
<text text-anchor="start" x="-56.2725" y="-23.8" font-family="Times,serif" font-size="14.00">index</text>
<text text-anchor="start" x="-56.2725" y="-9.8" font-family="Times,serif" font-size="14.00">new</text>
<text text-anchor="start" x="-56.2725" y="4.2" font-family="Times,serif" font-size="14.00">show</text>
<text text-anchor="start" x="-56.2725" y="18.2" font-family="Times,serif" font-size="14.00">update</text>
<polyline fill="none" stroke="black" points="-64.2725,25 58.2725,25 "/>
<polyline fill="none" stroke="black" points="-64.2725,49 58.2725,49 "/>
<text text-anchor="start" x="-56.2725" y="64.2" font-family="Times,serif" font-size="14.00">_layout</text>
<text text-anchor="start" x="-56.2725" y="78.2" font-family="Times,serif" font-size="14.00">find_cart</text>
<text text-anchor="start" x="-56.2725" y="92.2" font-family="Times,serif" font-size="14.00">find_for_prod</text>
<text text-anchor="start" x="-56.2725" y="106.2" font-family="Times,serif" font-size="14.00">find_product</text>
<text text-anchor="start" x="-56.2725" y="120.2" font-family="Times,serif" font-size="14.00">product_params</text>
</g>
<!-- UsersController -->
<g id="node11" class="node"><title>UsersController</title>
<path fill="none" stroke="black" d="M300.286,-289C300.286,-289 381.714,-289 381.714,-289 387.714,-289 393.714,-295 393.714,-301 393.714,-301 393.714,-367 393.714,-367 393.714,-373 387.714,-379 381.714,-379 381.714,-379 300.286,-379 300.286,-379 294.286,-379 288.286,-373 288.286,-367 288.286,-367 288.286,-301 288.286,-301 288.286,-295 294.286,-289 300.286,-289"/>
<text text-anchor="middle" x="341" y="-363.8" font-family="Times,serif" font-size="14.00">UsersController</text>
<polyline fill="none" stroke="black" points="288.286,-357 393.714,-357 "/>
<text text-anchor="start" x="296.286" y="-341.8" font-family="Times,serif" font-size="14.00">index</text>
<polyline fill="none" stroke="black" points="288.286,-335 393.714,-335 "/>
<polyline fill="none" stroke="black" points="288.286,-311 393.714,-311 "/>
<text text-anchor="start" x="296.286" y="-295.8" font-family="Times,serif" font-size="14.00">_layout</text>
</g>
</g>
</svg>
