<?xml version="1.0" encoding="UTF-8" standalone="no"?>
<!DOCTYPE svg PUBLIC "-//W3C//DTD SVG 1.1//EN"
 "http://www.w3.org/Graphics/SVG/1.1/DTD/svg11.dtd">
<!-- Generated by graphviz version 2.38.0 (20140413.2041)
 -->
<!-- Title: models_diagram Pages: 1 -->
<svg width="601pt" height="225pt"
 viewBox="0.00 0.00 600.97 225.00" xmlns="http://www.w3.org/2000/svg" xmlns:xlink="http://www.w3.org/1999/xlink">
<g id="graph0" class="graph" transform="scale(1 1) rotate(0) translate(4 221)">
<title>models_diagram</title>
<polygon fill="white" stroke="none" points="-4,4 -4,-221 596.971,-221 596.971,4 -4,4"/>
<!-- _diagram_info -->
<g id="node1" class="node"><title>_diagram_info</title>
<text text-anchor="start" x="8" y="-202.6" font-family="Times,serif" font-size="13.00">Models diagram</text>
<text text-anchor="start" x="8" y="-189.6" font-family="Times,serif" font-size="13.00">Date: Mar 02 2015 &#45; 13:08</text>
<text text-anchor="start" x="8" y="-176.6" font-family="Times,serif" font-size="13.00">Migration version: 20150218144058</text>
<text text-anchor="start" x="8" y="-163.6" font-family="Times,serif" font-size="13.00">Generated by RailRoady 1.3.0</text>
<text text-anchor="start" x="8" y="-150.6" font-family="Times,serif" font-size="13.00">http://railroady.prestonlee.com</text>
</g>
<!-- Ability -->
<g id="node2" class="node"><title>Ability</title>
<polygon fill="none" stroke="black" points="281.358,-198.5 226.018,-198.5 226.018,-162.5 281.358,-162.5 281.358,-198.5"/>
<text text-anchor="middle" x="253.688" y="-176.3" font-family="Times,serif" font-size="14.00">Ability</text>
</g>
<!-- Cart -->
<g id="node3" class="node"><title>Cart</title>
<ellipse fill="none" stroke="black" cx="250.688" cy="-90" rx="27" ry="18"/>
<text text-anchor="middle" x="250.688" y="-85.8" font-family="Times,serif" font-size="14.00">Cart</text>
</g>
<!-- ProductRecord -->
<g id="node9" class="node"><title>ProductRecord</title>
<ellipse fill="none" stroke="black" cx="322.688" cy="-18" rx="63.3097" ry="18"/>
<text text-anchor="middle" x="322.688" y="-13.8" font-family="Times,serif" font-size="14.00">ProductRecord</text>
</g>
<!-- Cart&#45;&gt;ProductRecord -->
<g id="edge1" class="edge"><title>Cart&#45;&gt;ProductRecord</title>
<path fill="none" stroke="#401827" d="M271.083,-69.171C279.672,-60.8213 289.729,-51.0431 298.673,-42.3479"/>
<ellipse fill="none" stroke="#401827" cx="268.126" cy="-72.0461" rx="4.00002" ry="4.00002"/>
<polygon fill="#401827" stroke="#401827" points="298.697,-42.3247 309.003,-38.5804 302.282,-38.8393 305.867,-35.3539 305.867,-35.3539 305.867,-35.3539 302.282,-38.8393 302.73,-32.1274 298.697,-42.3247 298.697,-42.3247"/>
</g>
<!-- Category -->
<g id="node4" class="node"><title>Category</title>
<ellipse fill="none" stroke="black" cx="421.688" cy="-180.5" rx="42.5456" ry="18"/>
<text text-anchor="middle" x="421.688" y="-176.3" font-family="Times,serif" font-size="14.00">Category</text>
</g>
<!-- Product -->
<g id="node8" class="node"><title>Product</title>
<ellipse fill="none" stroke="black" cx="424.688" cy="-90" rx="37.7352" ry="18"/>
<text text-anchor="middle" x="424.688" y="-85.8" font-family="Times,serif" font-size="14.00">Product</text>
</g>
<!-- Category&#45;&gt;Product -->
<g id="edge2" class="edge"><title>Category&#45;&gt;Product</title>
<path fill="none" stroke="#2c1d66" d="M422.546,-154.189C422.926,-142.971 423.374,-129.752 423.762,-118.311"/>
<ellipse fill="none" stroke="#2c1d66" cx="422.402" cy="-158.439" rx="4" ry="4"/>
<polygon fill="#2c1d66" stroke="#2c1d66" points="423.772,-118.006 428.609,-108.164 423.942,-113.008 424.111,-108.011 424.111,-108.011 424.111,-108.011 423.942,-113.008 419.614,-107.859 423.772,-118.006 423.772,-118.006"/>
</g>
<!-- Manufacture -->
<g id="node5" class="node"><title>Manufacture</title>
<ellipse fill="none" stroke="black" cx="537.688" cy="-180.5" rx="55.0664" ry="18"/>
<text text-anchor="middle" x="537.688" y="-176.3" font-family="Times,serif" font-size="14.00">Manufacture</text>
</g>
<!-- Manufacture&#45;&gt;Product -->
<g id="edge3" class="edge"><title>Manufacture&#45;&gt;Product</title>
<path fill="none" stroke="#6e13bd" d="M511.04,-158.63C493.221,-144.674 469.844,-126.366 451.907,-112.318"/>
<ellipse fill="none" stroke="#6e13bd" cx="514.336" cy="-161.212" rx="4.00002" ry="4.00002"/>
<polygon fill="#6e13bd" stroke="#6e13bd" points="451.46,-111.968 446.362,-102.259 447.524,-108.885 443.587,-105.802 443.587,-105.802 443.587,-105.802 447.524,-108.885 440.813,-109.345 451.46,-111.968 451.46,-111.968"/>
</g>
<!-- Order -->
<g id="node6" class="node"><title>Order</title>
<ellipse fill="none" stroke="black" cx="326.688" cy="-90" rx="30.9619" ry="18"/>
<text text-anchor="middle" x="326.688" y="-85.8" font-family="Times,serif" font-size="14.00">Order</text>
</g>
<!-- Order&#45;&gt;ProductRecord -->
<g id="edge4" class="edge"><title>Order&#45;&gt;ProductRecord</title>
<path fill="none" stroke="#4eeabc" d="M325.239,-63.6398C324.92,-58.0629 324.581,-52.1319 324.258,-46.4761"/>
<ellipse fill="none" stroke="#4eeabc" cx="325.471" cy="-67.7031" rx="4" ry="4"/>
<polygon fill="#4eeabc" stroke="#4eeabc" points="324.236,-46.088 328.158,-35.8476 323.95,-41.0962 323.665,-36.1043 323.665,-36.1043 323.665,-36.1043 323.95,-41.0962 319.172,-36.3611 324.236,-46.088 324.236,-46.088"/>
</g>
<!-- Picture -->
<g id="node7" class="node"><title>Picture</title>
<ellipse fill="none" stroke="black" cx="438.688" cy="-18" rx="35.3129" ry="18"/>
<text text-anchor="middle" x="438.688" y="-13.8" font-family="Times,serif" font-size="14.00">Picture</text>
</g>
<!-- Product&#45;&gt;Picture -->
<g id="edge6" class="edge"><title>Product&#45;&gt;Picture</title>
<path fill="none" stroke="#8c4dd1" d="M429.69,-63.9868C430.838,-58.2493 432.064,-52.1211 433.229,-46.2929"/>
<ellipse fill="none" stroke="#8c4dd1" cx="428.861" cy="-68.1326" rx="4.00001" ry="4.00001"/>
<polygon fill="#8c4dd1" stroke="#8c4dd1" points="433.271,-46.0811 439.645,-37.1579 434.252,-41.1782 435.233,-36.2753 435.233,-36.2753 435.233,-36.2753 434.252,-41.1782 430.82,-35.3927 433.271,-46.0811 433.271,-46.0811"/>
</g>
<!-- Product&#45;&gt;ProductRecord -->
<g id="edge5" class="edge"><title>Product&#45;&gt;ProductRecord</title>
<path fill="none" stroke="#c53e50" d="M397.415,-70.2833C384.069,-61.1245 367.934,-50.0514 354.077,-40.5419"/>
<ellipse fill="none" stroke="#c53e50" cx="400.748" cy="-72.5711" rx="4.00002" ry="4.00002"/>
<polygon fill="#c53e50" stroke="#c53e50" points="354.034,-40.5125 348.336,-31.1437 349.912,-37.6832 345.789,-34.854 345.789,-34.854 345.789,-34.854 349.912,-37.6832 343.243,-38.5643 354.034,-40.5125 354.034,-40.5125"/>
</g>
<!-- User -->
<g id="node10" class="node"><title>User</title>
<ellipse fill="none" stroke="black" cx="326.688" cy="-180.5" rx="27" ry="18"/>
<text text-anchor="middle" x="326.688" y="-176.3" font-family="Times,serif" font-size="14.00">User</text>
</g>
<!-- User&#45;&gt;Order -->
<g id="edge7" class="edge"><title>User&#45;&gt;Order</title>
<path fill="none" stroke="#9afbcf" d="M326.688,-154.189C326.688,-142.971 326.688,-129.752 326.688,-118.311"/>
<ellipse fill="none" stroke="#9afbcf" cx="326.688" cy="-158.436" rx="4" ry="4"/>
<polygon fill="#9afbcf" stroke="#9afbcf" points="326.688,-118.011 331.188,-108.011 326.688,-113.011 326.688,-108.011 326.688,-108.011 326.688,-108.011 326.688,-113.011 322.188,-108.011 326.688,-118.011 326.688,-118.011"/>
</g>
</g>
</svg>
