<?xml version="1.0" encoding="UTF-8" standalone="no"?>
<!DOCTYPE svg PUBLIC "-//W3C//DTD SVG 1.1//EN"
 "http://www.w3.org/Graphics/SVG/1.1/DTD/svg11.dtd">
<!-- Generated by graphviz version 2.38.0 (20140413.2041)
 -->
<!-- Title: models_diagram Pages: 1 -->
<svg width="814pt" height="677pt"
 viewBox="0.00 0.00 814.19 677.00" xmlns="http://www.w3.org/2000/svg" xmlns:xlink="http://www.w3.org/1999/xlink">
<g id="graph0" class="graph" transform="scale(1 1) rotate(0) translate(4 673)">
<title>models_diagram</title>
<polygon fill="white" stroke="none" points="-4,4 -4,-673 810.193,-673 810.193,4 -4,4"/>
<!-- _diagram_info -->
<g id="node1" class="node"><title>_diagram_info</title>
<text text-anchor="start" x="8" y="-563.6" font-family="Times,serif" font-size="13.00">Models diagram</text>
<text text-anchor="start" x="8" y="-550.6" font-family="Times,serif" font-size="13.00">Date: Mar 02 2015 &#45; 13:08</text>
<text text-anchor="start" x="8" y="-537.6" font-family="Times,serif" font-size="13.00">Migration version: 20150218144058</text>
<text text-anchor="start" x="8" y="-524.6" font-family="Times,serif" font-size="13.00">Generated by RailRoady 1.3.0</text>
<text text-anchor="start" x="8" y="-511.6" font-family="Times,serif" font-size="13.00">http://railroady.prestonlee.com</text>
</g>
<!-- Ability -->
<g id="node2" class="node"><title>Ability</title>
<polygon fill="none" stroke="black" points="225.853,-519.5 225.853,-563.5 281.522,-563.5 281.522,-519.5 225.853,-519.5"/>
<text text-anchor="middle" x="253.688" y="-548.3" font-family="Times,serif" font-size="14.00">Ability</text>
<polyline fill="none" stroke="black" points="225.853,-541.5 281.522,-541.5 "/>
<text text-anchor="middle" x="253.688" y="-526.3" font-family="Times,serif" font-size="14.00"> </text>
</g>
<!-- Cart -->
<g id="node3" class="node"><title>Cart</title>
<path fill="none" stroke="black" d="M203.182,-256.5C203.182,-256.5 312.193,-256.5 312.193,-256.5 318.193,-256.5 324.193,-262.5 324.193,-268.5 324.193,-268.5 324.193,-316.5 324.193,-316.5 324.193,-322.5 318.193,-328.5 312.193,-328.5 312.193,-328.5 203.182,-328.5 203.182,-328.5 197.182,-328.5 191.182,-322.5 191.182,-316.5 191.182,-316.5 191.182,-268.5 191.182,-268.5 191.182,-262.5 197.182,-256.5 203.182,-256.5"/>
<text text-anchor="middle" x="257.688" y="-313.3" font-family="Times,serif" font-size="14.00">Cart</text>
<polyline fill="none" stroke="black" points="191.182,-306.5 324.193,-306.5 "/>
<text text-anchor="start" x="199.182" y="-291.3" font-family="Times,serif" font-size="14.00">id :integer</text>
<text text-anchor="start" x="199.182" y="-277.3" font-family="Times,serif" font-size="14.00">created_at :datetime</text>
<text text-anchor="start" x="199.182" y="-263.3" font-family="Times,serif" font-size="14.00">updated_at :datetime</text>
</g>
<!-- ProductRecord -->
<g id="node9" class="node"><title>ProductRecord</title>
<path fill="none" stroke="black" d="M354.182,-21.5C354.182,-21.5 463.193,-21.5 463.193,-21.5 469.193,-21.5 475.193,-27.5 475.193,-33.5 475.193,-33.5 475.193,-137.5 475.193,-137.5 475.193,-143.5 469.193,-149.5 463.193,-149.5 463.193,-149.5 354.182,-149.5 354.182,-149.5 348.182,-149.5 342.182,-143.5 342.182,-137.5 342.182,-137.5 342.182,-33.5 342.182,-33.5 342.182,-27.5 348.182,-21.5 354.182,-21.5"/>
<text text-anchor="middle" x="408.688" y="-134.3" font-family="Times,serif" font-size="14.00">ProductRecord</text>
<polyline fill="none" stroke="black" points="342.182,-127.5 475.193,-127.5 "/>
<text text-anchor="start" x="350.182" y="-112.3" font-family="Times,serif" font-size="14.00">id :integer</text>
<text text-anchor="start" x="350.182" y="-98.3" font-family="Times,serif" font-size="14.00">created_at :datetime</text>
<text text-anchor="start" x="350.182" y="-84.3" font-family="Times,serif" font-size="14.00">updated_at :datetime</text>
<text text-anchor="start" x="350.182" y="-70.3" font-family="Times,serif" font-size="14.00">product_id :integer</text>
<text text-anchor="start" x="350.182" y="-56.3" font-family="Times,serif" font-size="14.00">cart_id :integer</text>
<text text-anchor="start" x="350.182" y="-42.3" font-family="Times,serif" font-size="14.00">quantity :integer</text>
<text text-anchor="start" x="350.182" y="-28.3" font-family="Times,serif" font-size="14.00">order_id :integer</text>
</g>
<!-- Cart&#45;&gt;ProductRecord -->
<g id="edge1" class="edge"><title>Cart&#45;&gt;ProductRecord</title>
<path fill="none" stroke="#540c19" d="M288.586,-249.552C308,-223.195 333.549,-188.51 356.089,-157.909"/>
<ellipse fill="none" stroke="#540c19" cx="286.018" cy="-253.039" rx="4.00002" ry="4.00002"/>
<polygon fill="#540c19" stroke="#540c19" points="356.123,-157.863 365.676,-152.481 359.088,-153.838 362.053,-149.812 362.053,-149.812 362.053,-149.812 359.088,-153.838 358.43,-147.143 356.123,-157.863 356.123,-157.863"/>
</g>
<!-- Category -->
<g id="node4" class="node"><title>Category</title>
<path fill="none" stroke="black" d="M534.182,-498.5C534.182,-498.5 643.193,-498.5 643.193,-498.5 649.193,-498.5 655.193,-504.5 655.193,-510.5 655.193,-510.5 655.193,-572.5 655.193,-572.5 655.193,-578.5 649.193,-584.5 643.193,-584.5 643.193,-584.5 534.182,-584.5 534.182,-584.5 528.182,-584.5 522.182,-578.5 522.182,-572.5 522.182,-572.5 522.182,-510.5 522.182,-510.5 522.182,-504.5 528.182,-498.5 534.182,-498.5"/>
<text text-anchor="middle" x="588.688" y="-569.3" font-family="Times,serif" font-size="14.00">Category</text>
<polyline fill="none" stroke="black" points="522.182,-562.5 655.193,-562.5 "/>
<text text-anchor="start" x="530.182" y="-547.3" font-family="Times,serif" font-size="14.00">id :integer</text>
<text text-anchor="start" x="530.182" y="-533.3" font-family="Times,serif" font-size="14.00">title :string</text>
<text text-anchor="start" x="530.182" y="-519.3" font-family="Times,serif" font-size="14.00">created_at :datetime</text>
<text text-anchor="start" x="530.182" y="-505.3" font-family="Times,serif" font-size="14.00">updated_at :datetime</text>
</g>
<!-- Product -->
<g id="node8" class="node"><title>Product</title>
<path fill="none" stroke="black" d="M525.634,-207.5C525.634,-207.5 651.741,-207.5 651.741,-207.5 657.741,-207.5 663.741,-213.5 663.741,-219.5 663.741,-219.5 663.741,-365.5 663.741,-365.5 663.741,-371.5 657.741,-377.5 651.741,-377.5 651.741,-377.5 525.634,-377.5 525.634,-377.5 519.634,-377.5 513.634,-371.5 513.634,-365.5 513.634,-365.5 513.634,-219.5 513.634,-219.5 513.634,-213.5 519.634,-207.5 525.634,-207.5"/>
<text text-anchor="middle" x="588.688" y="-362.3" font-family="Times,serif" font-size="14.00">Product</text>
<polyline fill="none" stroke="black" points="513.634,-355.5 663.741,-355.5 "/>
<text text-anchor="start" x="521.634" y="-340.3" font-family="Times,serif" font-size="14.00">id :integer</text>
<text text-anchor="start" x="521.634" y="-326.3" font-family="Times,serif" font-size="14.00">name :string</text>
<text text-anchor="start" x="521.634" y="-312.3" font-family="Times,serif" font-size="14.00">category_id :integer</text>
<text text-anchor="start" x="521.634" y="-298.3" font-family="Times,serif" font-size="14.00">manufacture_id :integer</text>
<text text-anchor="start" x="521.634" y="-284.3" font-family="Times,serif" font-size="14.00">color :string</text>
<text text-anchor="start" x="521.634" y="-270.3" font-family="Times,serif" font-size="14.00">price :float</text>
<text text-anchor="start" x="521.634" y="-256.3" font-family="Times,serif" font-size="14.00">sku :integer</text>
<text text-anchor="start" x="521.634" y="-242.3" font-family="Times,serif" font-size="14.00">description :text</text>
<text text-anchor="start" x="521.634" y="-228.3" font-family="Times,serif" font-size="14.00">created_at :datetime</text>
<text text-anchor="start" x="521.634" y="-214.3" font-family="Times,serif" font-size="14.00">updated_at :datetime</text>
</g>
<!-- Category&#45;&gt;Product -->
<g id="edge2" class="edge"><title>Category&#45;&gt;Product</title>
<path fill="none" stroke="#dd5d9d" d="M588.688,-489.929C588.688,-460.56 588.688,-422.618 588.688,-387.923"/>
<ellipse fill="none" stroke="#dd5d9d" cx="588.688" cy="-494.32" rx="4" ry="4"/>
<polygon fill="#dd5d9d" stroke="#dd5d9d" points="588.688,-387.754 593.188,-377.754 588.688,-382.754 588.688,-377.754 588.688,-377.754 588.688,-377.754 588.688,-382.754 584.188,-377.754 588.688,-387.754 588.688,-387.754"/>
</g>
<!-- Manufacture -->
<g id="node5" class="node"><title>Manufacture</title>
<path fill="none" stroke="black" d="M685.182,-491.5C685.182,-491.5 794.193,-491.5 794.193,-491.5 800.193,-491.5 806.193,-497.5 806.193,-503.5 806.193,-503.5 806.193,-579.5 806.193,-579.5 806.193,-585.5 800.193,-591.5 794.193,-591.5 794.193,-591.5 685.182,-591.5 685.182,-591.5 679.182,-591.5 673.182,-585.5 673.182,-579.5 673.182,-579.5 673.182,-503.5 673.182,-503.5 673.182,-497.5 679.182,-491.5 685.182,-491.5"/>
<text text-anchor="middle" x="739.688" y="-576.3" font-family="Times,serif" font-size="14.00">Manufacture</text>
<polyline fill="none" stroke="black" points="673.182,-569.5 806.193,-569.5 "/>
<text text-anchor="start" x="681.182" y="-554.3" font-family="Times,serif" font-size="14.00">id :integer</text>
<text text-anchor="start" x="681.182" y="-540.3" font-family="Times,serif" font-size="14.00">title :string</text>
<text text-anchor="start" x="681.182" y="-526.3" font-family="Times,serif" font-size="14.00">created_at :datetime</text>
<text text-anchor="start" x="681.182" y="-512.3" font-family="Times,serif" font-size="14.00">updated_at :datetime</text>
<text text-anchor="start" x="681.182" y="-498.3" font-family="Times,serif" font-size="14.00">description :text</text>
</g>
<!-- Manufacture&#45;&gt;Product -->
<g id="edge3" class="edge"><title>Manufacture&#45;&gt;Product</title>
<path fill="none" stroke="#f6d654" d="M706.835,-484.333C693.842,-462.319 678.692,-436.896 664.688,-414 659.155,-404.954 653.343,-395.557 647.502,-386.182"/>
<ellipse fill="none" stroke="#f6d654" cx="708.942" cy="-487.907" rx="4.00002" ry="4.00002"/>
<polygon fill="#f6d654" stroke="#f6d654" points="647.432,-386.071 645.953,-375.205 644.784,-381.83 642.136,-377.589 642.136,-377.589 642.136,-377.589 644.784,-381.83 638.319,-379.972 647.432,-386.071 647.432,-386.071"/>
</g>
<!-- Order -->
<g id="node6" class="node"><title>Order</title>
<path fill="none" stroke="black" d="M354.182,-249.5C354.182,-249.5 463.193,-249.5 463.193,-249.5 469.193,-249.5 475.193,-255.5 475.193,-261.5 475.193,-261.5 475.193,-323.5 475.193,-323.5 475.193,-329.5 469.193,-335.5 463.193,-335.5 463.193,-335.5 354.182,-335.5 354.182,-335.5 348.182,-335.5 342.182,-329.5 342.182,-323.5 342.182,-323.5 342.182,-261.5 342.182,-261.5 342.182,-255.5 348.182,-249.5 354.182,-249.5"/>
<text text-anchor="middle" x="408.688" y="-320.3" font-family="Times,serif" font-size="14.00">Order</text>
<polyline fill="none" stroke="black" points="342.182,-313.5 475.193,-313.5 "/>
<text text-anchor="start" x="350.182" y="-298.3" font-family="Times,serif" font-size="14.00">id :integer</text>
<text text-anchor="start" x="350.182" y="-284.3" font-family="Times,serif" font-size="14.00">user_id :integer</text>
<text text-anchor="start" x="350.182" y="-270.3" font-family="Times,serif" font-size="14.00">created_at :datetime</text>
<text text-anchor="start" x="350.182" y="-256.3" font-family="Times,serif" font-size="14.00">updated_at :datetime</text>
</g>
<!-- Order&#45;&gt;ProductRecord -->
<g id="edge4" class="edge"><title>Order&#45;&gt;ProductRecord</title>
<path fill="none" stroke="#e86290" d="M408.688,-240.7C408.688,-216.258 408.688,-186.504 408.688,-159.677"/>
<ellipse fill="none" stroke="#e86290" cx="408.688" cy="-245.024" rx="4" ry="4"/>
<polygon fill="#e86290" stroke="#e86290" points="408.688,-159.555 413.188,-149.555 408.688,-154.555 408.688,-149.555 408.688,-149.555 408.688,-149.555 408.688,-154.555 404.188,-149.555 408.688,-159.555 408.688,-159.555"/>
</g>
<!-- Picture -->
<g id="node7" class="node"><title>Picture</title>
<path fill="none" stroke="black" d="M513.579,-0.5C513.579,-0.5 663.797,-0.5 663.797,-0.5 669.797,-0.5 675.797,-6.5 675.797,-12.5 675.797,-12.5 675.797,-158.5 675.797,-158.5 675.797,-164.5 669.797,-170.5 663.797,-170.5 663.797,-170.5 513.579,-170.5 513.579,-170.5 507.579,-170.5 501.579,-164.5 501.579,-158.5 501.579,-158.5 501.579,-12.5 501.579,-12.5 501.579,-6.5 507.579,-0.5 513.579,-0.5"/>
<text text-anchor="middle" x="588.688" y="-155.3" font-family="Times,serif" font-size="14.00">Picture</text>
<polyline fill="none" stroke="black" points="501.579,-148.5 675.797,-148.5 "/>
<text text-anchor="start" x="509.579" y="-133.3" font-family="Times,serif" font-size="14.00">id :integer</text>
<text text-anchor="start" x="509.579" y="-119.3" font-family="Times,serif" font-size="14.00">created_at :datetime</text>
<text text-anchor="start" x="509.579" y="-105.3" font-family="Times,serif" font-size="14.00">updated_at :datetime</text>
<text text-anchor="start" x="509.579" y="-91.3" font-family="Times,serif" font-size="14.00">name :string</text>
<text text-anchor="start" x="509.579" y="-77.3" font-family="Times,serif" font-size="14.00">imageable_id :integer</text>
<text text-anchor="start" x="509.579" y="-63.3" font-family="Times,serif" font-size="14.00">imageable_type :string</text>
<text text-anchor="start" x="509.579" y="-49.3" font-family="Times,serif" font-size="14.00">image_file_name :string</text>
<text text-anchor="start" x="509.579" y="-35.3" font-family="Times,serif" font-size="14.00">image_content_type :string</text>
<text text-anchor="start" x="509.579" y="-21.3" font-family="Times,serif" font-size="14.00">image_file_size :integer</text>
<text text-anchor="start" x="509.579" y="-7.3" font-family="Times,serif" font-size="14.00">image_updated_at :datetime</text>
</g>
<!-- Product&#45;&gt;Picture -->
<g id="edge6" class="edge"><title>Product&#45;&gt;Picture</title>
<path fill="none" stroke="#8885dc" d="M588.688,-199.004C588.688,-192.98 588.688,-186.909 588.688,-180.876"/>
<ellipse fill="none" stroke="#8885dc" cx="588.688" cy="-203.231" rx="4" ry="4"/>
<polygon fill="#8885dc" stroke="#8885dc" points="588.688,-180.773 593.188,-170.773 588.688,-175.773 588.688,-170.773 588.688,-170.773 588.688,-170.773 588.688,-175.773 584.188,-170.773 588.688,-180.773 588.688,-180.773"/>
</g>
<!-- Product&#45;&gt;ProductRecord -->
<g id="edge5" class="edge"><title>Product&#45;&gt;ProductRecord</title>
<path fill="none" stroke="#5b5195" d="M509.135,-200.898C496.351,-186.339 483.282,-171.454 470.978,-157.442"/>
<ellipse fill="none" stroke="#5b5195" cx="512.056" cy="-204.225" rx="4.00002" ry="4.00002"/>
<polygon fill="#5b5195" stroke="#5b5195" points="470.827,-157.269 467.61,-146.786 467.528,-153.512 464.229,-149.755 464.229,-149.755 464.229,-149.755 467.528,-153.512 460.847,-152.724 470.827,-157.269 470.827,-157.269"/>
</g>
<!-- User -->
<g id="node10" class="node"><title>User</title>
<path fill="none" stroke="black" d="M311.41,-414.5C311.41,-414.5 491.966,-414.5 491.966,-414.5 497.966,-414.5 503.966,-420.5 503.966,-426.5 503.966,-426.5 503.966,-656.5 503.966,-656.5 503.966,-662.5 497.966,-668.5 491.966,-668.5 491.966,-668.5 311.41,-668.5 311.41,-668.5 305.41,-668.5 299.41,-662.5 299.41,-656.5 299.41,-656.5 299.41,-426.5 299.41,-426.5 299.41,-420.5 305.41,-414.5 311.41,-414.5"/>
<text text-anchor="middle" x="401.688" y="-653.3" font-family="Times,serif" font-size="14.00">User</text>
<polyline fill="none" stroke="black" points="299.41,-646.5 503.966,-646.5 "/>
<text text-anchor="start" x="307.41" y="-631.3" font-family="Times,serif" font-size="14.00">id :integer</text>
<text text-anchor="start" x="307.41" y="-617.3" font-family="Times,serif" font-size="14.00">email :string</text>
<text text-anchor="start" x="307.41" y="-603.3" font-family="Times,serif" font-size="14.00">encrypted_password :string</text>
<text text-anchor="start" x="307.41" y="-589.3" font-family="Times,serif" font-size="14.00">reset_password_token :string</text>
<text text-anchor="start" x="307.41" y="-575.3" font-family="Times,serif" font-size="14.00">reset_password_sent_at :datetime</text>
<text text-anchor="start" x="307.41" y="-561.3" font-family="Times,serif" font-size="14.00">remember_created_at :datetime</text>
<text text-anchor="start" x="307.41" y="-547.3" font-family="Times,serif" font-size="14.00">sign_in_count :integer</text>
<text text-anchor="start" x="307.41" y="-533.3" font-family="Times,serif" font-size="14.00">current_sign_in_at :datetime</text>
<text text-anchor="start" x="307.41" y="-519.3" font-family="Times,serif" font-size="14.00">last_sign_in_at :datetime</text>
<text text-anchor="start" x="307.41" y="-505.3" font-family="Times,serif" font-size="14.00">current_sign_in_ip :string</text>
<text text-anchor="start" x="307.41" y="-491.3" font-family="Times,serif" font-size="14.00">last_sign_in_ip :string</text>
<text text-anchor="start" x="307.41" y="-477.3" font-family="Times,serif" font-size="14.00">created_at :datetime</text>
<text text-anchor="start" x="307.41" y="-463.3" font-family="Times,serif" font-size="14.00">updated_at :datetime</text>
<text text-anchor="start" x="307.41" y="-449.3" font-family="Times,serif" font-size="14.00">username :string</text>
<text text-anchor="start" x="307.41" y="-435.3" font-family="Times,serif" font-size="14.00">role :string</text>
<text text-anchor="start" x="307.41" y="-421.3" font-family="Times,serif" font-size="14.00">address :string</text>
</g>
<!-- User&#45;&gt;Order -->
<g id="edge7" class="edge"><title>User&#45;&gt;Order</title>
<path fill="none" stroke="#a83c4d" d="M405.495,-406.15C406.101,-384.779 406.694,-363.844 407.202,-345.932"/>
<ellipse fill="none" stroke="#a83c4d" cx="405.373" cy="-410.469" rx="4" ry="4"/>
<polygon fill="#a83c4d" stroke="#a83c4d" points="407.207,-345.751 411.988,-335.883 407.349,-340.753 407.49,-335.755 407.49,-335.755 407.49,-335.755 407.349,-340.753 402.992,-335.628 407.207,-345.751 407.207,-345.751"/>
</g>
</g>
</svg>
